<svg width="379px" height="71px" viewBox="0 0 379 71" version="1.1" xmlns="http://www.w3.org/2000/svg" xmlns:xlink="http://www.w3.org/1999/xlink">
    <defs>
        <polygon id="path-1" points="0 71 378.8 71 378.8 0 0 0"></polygon>
    </defs>
    <g id="Page-1" stroke="none" stroke-width="1" fill="none" fill-rule="evenodd">
        <g id="logo">
            <path d="M7.1,0 C3.2,0 0,3.1 0,7 L0,64 C0,67.8 3.2,71 7.1,71 L358.5,71 C362.4,71 365.6,67.9 365.6,64 L365.6,7 C365.6,3.2 362.4,0 358.5,0 L7.1,0 Z" id="Path" fill="#FFFFFF"></path>
            <path d="M3,64 L3,7 C3,4.8 4.8,3.1 7.1,3.1 L358.5,3.1 C360.7,3.1 362.6,4.9 362.6,7 L362.6,64 C362.6,66.2 360.8,67.9 358.5,67.9 L7.1,67.9 C4.8,67.9 3,66.2 3,64 Z M7.1,0 C3.2,0 0,3.1 0,7 L0,64 C0,67.8 3.2,71 7.1,71 L358.5,71 C362.4,71 365.6,67.9 365.6,64 L365.6,7 C365.6,3.2 362.4,0 358.5,0 L7.1,0 Z" id="Fill-1" fill="#000000"></path>
            <mask id="mask-2" fill="white">
                <use xlink:href="#path-1"></use>
            </mask>
            <g id="Clip-4"></g>
            <polygon id="Fill-3" fill="#000000" mask="url(#mask-2)" points="65.6 65.1 122.3 65.1 122.3 5.901 65.6 5.901"></polygon>
            <polygon id="Fill-5" fill="#000000" mask="url(#mask-2)" points="124.7 65.1 181.4 65.1 181.4 5.901 124.7 5.901"></polygon>
            <polygon id="Fill-6" fill="#000000" mask="url(#mask-2)" points="184.3 65.1 241 65.1 241 5.901 184.3 5.901"></polygon>
            <polygon id="Fill-7" fill="#000000" mask="url(#mask-2)" points="243.8 65.1 300.5 65.1 300.5 5.901 243.8 5.901"></polygon>
            <path d="M358.0996,63.5 L349.5996,63.5 L337.7006,46.5 L351.4006,27.3 L337.7996,27.3 L335.4006,31.1 C333.9006,33.6 332.2006,36.2 331.2006,38.3 C330.2996,36.2 328.5996,33.6 327.0996,31.1 L324.7006,27.3 L310.7996,27.3 L324.4996,46.8 L312.2996,63.5 L304.4996,63.5 L304.4996,7.3 L358.0996,7.3 L358.0996,63.5 Z" id="Path" fill="#FFFFFF" mask="url(#mask-2)"></path>
            <polygon id="Fill-8" fill="#000000" mask="url(#mask-2)" points="6 65.1 62.7 65.1 62.7 5.901 6 5.901"></polygon>
            <path d="M35.7002,56.2998 C23.9002,56.2998 17.7002,47.5998 17.7002,35.9008 C17.7002,23.1998 25.2002,15.4998 35.8002,15.4998 C45.5002,15.4998 49.4002,19.6998 52.1002,27.0998 L42.1002,30.9998 C40.7002,27.2998 39.3002,24.9998 35.7002,24.9998 C31.1002,24.9998 29.1002,29.5998 29.1002,35.9008 C29.1002,41.9998 31.0002,46.7998 35.8002,46.7998 C39.2002,46.7998 40.7002,44.9008 42.9002,41.1998 L52.2002,46.0998 C49.5002,51.1998 45.1002,56.2998 35.7002,56.2998" id="Fill-9" fill="#FFFFFF" mask="url(#mask-2)"></path>
            <path d="M114,55.2002 L99.6,15.5992 L88.5,15.5992 L74.1,55.2002 L86,55.2002 L88.1,48.2002 L100,48.2002 L102.1,55.2002 L114,55.2002 Z M97.3,39.5002 L90.7,39.5002 L91.4,36.9002 C92.8,31.9002 93.4,29.7002 93.9,27.0002 C94.4,29.7002 95,31.8002 96.4,36.9002 L97.3,39.5002 Z" id="Fill-10" fill="#FFFFFF" mask="url(#mask-2)"></path>
            <path d="M170.2998,55.4004 L162.3998,40.2994 C166.7998,38.2994 169.4998,34.7004 169.4998,28.7004 C169.4998,19.2994 163.2998,15.7994 154.0998,15.7994 L136.3998,15.7994 L136.3998,55.4004 L147.1998,55.4004 L147.1998,42.0004 L151.5998,42.0004 L158.0998,55.4004 L170.2998,55.4004 Z M158.5998,29.0004 C158.5998,31.7994 157.1998,33.4004 153.5998,33.4004 L147.0998,33.4004 L147.0998,24.7004 L153.6998,24.7004 C157.2998,24.7004 158.5998,26.5004 158.5998,29.0004 Z" id="Fill-11" fill="#FFFFFF" mask="url(#mask-2)"></path>
            <polygon id="Fill-12" fill="#FFFFFF" mask="url(#mask-2)" points="207.7998 25.0996 207.7998 30.5996 220.1998 30.5996 220.1998 39.9006 207.7998 39.9006 207.7998 55.4006 196.9008 55.4006 196.9008 15.7996 228.1998 15.7996 228.1998 25.0996"></polygon>
            <path d="M291.7002,55.5 L277.3002,15.9 L266.2002,15.9 L251.9002,55.5 L263.7002,55.5 L265.8002,48.5 L277.7002,48.5 L279.8002,55.5 L291.7002,55.5 Z M275.0002,39.8 L268.4002,39.8 L269.0992,37.2 C270.5002,32.2 271.0992,30 271.5992,27.3 C272.0992,30 272.7002,32.1 274.0992,37.2 L275.0002,39.8 Z" id="Fill-13" fill="#FFFFFF" mask="url(#mask-2)"></path>
            <path d="M358.0996,63.5 L349.5996,63.5 L337.7006,46.5 L351.4006,27.3 L337.7996,27.3 L335.4006,31.1 C333.9006,33.6 332.2006,36.2 331.2006,38.3 C330.2996,36.2 328.5996,33.6 327.0996,31.1 L324.7006,27.3 L310.7996,27.3 L324.4996,46.8 L312.2996,63.5 L304.4996,63.5 L304.4996,7.3 L358.0996,7.3 L358.0996,63.5 Z M325.7006,63.5 L326.7006,62.1 C328.2996,59.6 329.9006,56.9 330.9006,54.8 C331.9996,56.9 333.4996,59.6 334.9996,62.1 L335.9006,63.5 L325.7006,63.5 Z M302.9006,65 L359.5996,65 L359.5996,5.8 L302.9006,5.8 L302.9006,65 Z" id="Fill-14" fill="#000000" mask="url(#mask-2)"></path>
            <path d="M373.2002,5.2002 C374.0992,5.2002 374.8002,5.2002 374.8002,4.2002 C374.8002,3.4002 374.0992,3.3002 373.4002,3.3002 L372.0992,3.3002 L372.0992,5.2002 L373.2002,5.2002 Z M371.2002,2.4002 L373.5992,2.4002 C375.0002,2.4002 375.7002,3.0002 375.7002,4.2002 C375.7002,5.3002 375.0002,5.8002 374.0002,5.9002 L375.8002,8.5992 L374.8002,8.5992 L373.0992,6.0002 L372.0992,6.0002 L372.0992,8.5992 L371.0992,8.5992 L371.0992,2.4002 L371.2002,2.4002 Z M377.8002,5.5002 C377.8002,3.0002 375.8002,1.0002 373.4002,1.0002 C370.9002,1.0002 369.0002,3.0002 369.0002,5.5002 C369.0002,8.0002 371.0002,10.0002 373.4002,10.0002 C375.8002,10.0002 377.8002,8.0002 377.8002,5.5002 Z M373.4002,0.0992 C376.4002,0.0992 378.8002,2.5002 378.8002,5.5002 C378.8002,8.5002 376.4002,10.9002 373.4002,10.9002 C370.4002,10.9002 368.0002,8.5002 368.0002,5.5002 C368.0002,2.5002 370.4002,0.0992 373.4002,0.0992 Z" id="Fill-15" fill="#FFFFFF" mask="url(#mask-2)"></path>
        </g>
    </g>
</svg>